<svg xmlns="http://www.w3.org/2000/svg" viewBox="0 0 108 108" width="108" height="108" role="img" aria-label="DYDownloader App Icon">
  <rect width="108" height="108" fill="#261D38"/>
  <g transform="translate(0 -6)" fill="#FFF7FAFF">
    <path d="M54,39c-2,0 -3.6,1.6 -3.6,3.6v15.5l-4.8,-4.8c-1.3,-1.3 -3.3,-1.3 -4.6,0c-1.3,1.3 -1.3,3.3 0,4.6l10.5,10.5c1.4,1.4 3.7,1.4 5.1,0l10.5,-10.5c1.3,-1.3 1.3,-3.3 0,-4.6c-1.3,-1.3 -3.3,-1.3 -4.6,0l-4.8,4.8V42.6c0,-2 -1.6,-3.6 -3.6,-3.6z"/>
    <path d="M37,74c0,4.4 3.6,8 8,8h18c4.4,0 8,-3.6 8,-8v-2c0,-1.6 -1.3,-2.8 -2.8,-2.8c-1.6,0 -2.8,1.3 -2.8,2.8v2c0,1.3 -1.1,2.4 -2.4,2.4H45c-1.3,0 -2.4,-1.1 -2.4,-2.4v-2c0,-1.6 -1.3,-2.8 -2.8,-2.8c-1.6,0 -2.8,1.3 -2.8,2.8V74z"/>
  </g>
</svg>
